<svg width="35" height="22" viewBox="0 0 35 22" fill="none" xmlns="http://www.w3.org/2000/svg">
<path d="M10.1247 0C11.1288 0 12.0576 0.0785713 12.9061 0.311143C13.6762 0.452642 14.4112 0.743019 15.07 1.166C15.6891 1.55414 16.1527 2.09943 16.4607 2.79871C16.7703 3.498 16.9243 4.35443 16.9243 5.28628C16.9243 6.37528 16.6933 7.30714 16.1527 8.00642C15.6891 8.70728 14.916 9.32799 13.9888 9.79471C15.3026 10.1844 16.3067 10.8837 16.9243 11.8156C17.5434 12.749 17.93 13.915 17.93 15.2366C17.93 16.3256 17.6974 17.2574 17.3108 18.0353C16.9243 18.8131 16.3067 19.5124 15.6106 19.9791C14.8544 20.4794 14.0185 20.8471 13.1387 21.0666C12.2116 21.3007 11.2844 21.4563 10.3573 21.4563H0V0H10.1247ZM9.50556 8.70571C10.3557 8.70571 11.0518 8.47314 11.5924 8.08499C12.133 7.69685 12.3656 6.996 12.3656 6.14114C12.3656 5.67443 12.287 5.20771 12.133 4.89814C11.979 4.587 11.7464 4.35285 11.4384 4.12028C11.1288 3.96471 10.8193 3.80914 10.4327 3.73214C10.0461 3.65357 9.66114 3.65357 9.19599 3.65357H4.71428V8.70728H9.50714L9.50556 8.70571ZM9.73814 17.8797C10.2017 17.8797 10.6653 17.8011 11.0518 17.7241C11.4422 17.6499 11.8113 17.4906 12.133 17.2574C12.4479 17.0299 12.7113 16.7386 12.9061 16.4026C13.0601 16.0144 13.2157 15.5477 13.2157 15.004C13.2157 13.915 12.9061 13.1371 12.2886 12.5934C11.6694 12.1267 10.8193 11.8941 9.81514 11.8941H4.71428V17.8813L9.73814 17.8797ZM24.6541 17.8011C25.2717 18.4234 26.1988 18.7346 27.4356 18.7346C28.2857 18.7346 29.0588 18.502 29.6764 18.1138C30.2956 17.6471 30.6821 17.1804 30.8361 16.7137H34.6233C34.0041 18.579 33.077 19.9006 31.8418 20.7554C30.6036 21.5333 29.1358 22 27.3586 22C26.2214 22.0034 25.0938 21.7923 24.035 21.3777C23.0822 21.0203 22.2326 20.433 21.5616 19.668C20.8439 18.9523 20.3134 18.071 20.0168 17.1018C19.6303 16.0914 19.4747 15.004 19.4747 13.7594C19.4747 12.5934 19.6303 11.506 20.0168 10.494C20.3885 9.51985 20.9385 8.6235 21.6386 7.85085C22.3347 7.15157 23.1848 6.53085 24.112 6.14114C25.1439 5.72638 26.2464 5.51507 27.3586 5.51885C28.6723 5.51885 29.832 5.753 30.8361 6.29671C31.8418 6.84042 32.6134 7.46271 33.2325 8.39614C33.8641 9.29268 34.3347 10.2924 34.6233 11.3504C34.7773 12.4378 34.8543 13.5268 34.7773 14.7698H23.5714C23.5714 16.0144 24.035 17.1804 24.6541 17.8027V17.8011ZM29.5224 9.63914C28.9818 9.09542 28.1317 8.78428 27.126 8.78428C26.4314 8.78428 25.8893 8.93985 25.4257 9.17242C24.9621 9.40657 24.6541 9.71771 24.3446 10.0289C24.0601 10.3294 23.8718 10.7081 23.804 11.1163C23.7254 11.506 23.6484 11.8156 23.6484 12.1267H30.6036C30.4496 10.9607 30.063 10.1844 29.5224 9.63914ZM22.7213 1.47714H31.3767V3.57657H22.7228V1.47714H22.7213Z" fill="#0060AA"/>
</svg>
