<svg width="22" height="22" viewBox="0 0 22 22" fill="none" xmlns="http://www.w3.org/2000/svg">
<path d="M10.9508 7.66558C10.0795 7.66558 9.24392 8.01171 8.62781 8.62781C8.01171 9.24392 7.66558 10.0795 7.66558 10.9508C7.66558 11.8221 8.01171 12.6578 8.62781 13.2739C9.24392 13.89 10.0795 14.2361 10.9508 14.2361C11.8221 14.2361 12.6578 13.89 13.2739 13.2739C13.89 12.6578 14.2361 11.8221 14.2361 10.9508C14.2361 10.0795 13.89 9.24392 13.2739 8.62781C12.6578 8.01171 11.8221 7.66558 10.9508 7.66558ZM10.9508 5.47542C12.403 5.47542 13.7957 6.05229 14.8225 7.07913C15.8494 8.10597 16.4263 9.49866 16.4263 10.9508C16.4263 12.403 15.8494 13.7957 14.8225 14.8225C13.7957 15.8494 12.403 16.4263 10.9508 16.4263C9.49866 16.4263 8.10597 15.8494 7.07913 14.8225C6.05229 13.7957 5.47542 12.403 5.47542 10.9508C5.47542 9.49866 6.05229 8.10597 7.07913 7.07913C8.10597 6.05229 9.49866 5.47542 10.9508 5.47542ZM18.0689 5.20165C18.0689 5.56469 17.9247 5.91286 17.6679 6.16957C17.4112 6.42628 17.0631 6.5705 16.7 6.5705C16.337 6.5705 15.9888 6.42628 15.7321 6.16957C15.4754 5.91286 15.3312 5.56469 15.3312 5.20165C15.3312 4.8386 15.4754 4.49043 15.7321 4.23372C15.9888 3.97701 16.337 3.83279 16.7 3.83279C17.0631 3.83279 17.4112 3.97701 17.6679 4.23372C17.9247 4.49043 18.0689 4.8386 18.0689 5.20165ZM10.9508 2.19017C8.2416 2.19017 7.79918 2.19783 6.53874 2.25368C5.6802 2.2942 5.10418 2.40918 4.56978 2.61725C4.09452 2.80122 3.75176 3.02134 3.38709 3.38709C3.04434 3.71825 2.7808 4.12253 2.61615 4.56978C2.40809 5.10637 2.2931 5.68129 2.25368 6.53874C2.19674 7.74772 2.19017 8.17042 2.19017 10.9508C2.19017 13.6601 2.19783 14.1025 2.25368 15.3629C2.2942 16.2204 2.40918 16.7975 2.61615 17.3308C2.80232 17.8072 3.02134 18.1499 3.3849 18.5135C3.75395 18.8814 4.09671 19.1015 4.56759 19.2833C5.10856 19.4925 5.68458 19.6086 6.53874 19.648C7.74772 19.7049 8.17042 19.7115 10.9508 19.7115C13.6601 19.7115 14.1025 19.7038 15.3629 19.648C16.2193 19.6075 16.7964 19.4925 17.3308 19.2855C17.805 19.1004 18.1499 18.8803 18.5135 18.5168C18.8825 18.1477 19.1026 17.805 19.2844 17.3341C19.4925 16.7942 19.6086 16.2171 19.648 15.3629C19.7049 14.154 19.7115 13.7313 19.7115 10.9508C19.7115 8.2416 19.7038 7.79918 19.648 6.53874C19.6075 5.68239 19.4925 5.10418 19.2844 4.56978C19.1194 4.12299 18.8563 3.71886 18.5146 3.38709C18.1836 3.04416 17.7792 2.7806 17.3319 2.61615C16.7953 2.40809 16.2193 2.2931 15.3629 2.25368C14.154 2.19674 13.7313 2.19017 10.9508 2.19017ZM10.9508 0C13.9262 0 14.2974 0.0109508 15.4648 0.0657049C16.631 0.120459 17.425 0.303338 18.1236 0.574919C18.8464 0.85307 19.4553 1.22978 20.0641 1.83755C20.621 2.38498 21.0518 3.04717 21.3268 3.77804C21.5972 4.47561 21.7812 5.27064 21.836 6.4369C21.8874 7.60426 21.9017 7.97549 21.9017 10.9508C21.9017 13.9262 21.8907 14.2974 21.836 15.4648C21.7812 16.631 21.5972 17.425 21.3268 18.1236C21.0526 18.8549 20.6216 19.5173 20.0641 20.0641C19.5165 20.6208 18.8544 21.0516 18.1236 21.3268C17.4261 21.5972 16.631 21.7812 15.4648 21.836C14.2974 21.8874 13.9262 21.9017 10.9508 21.9017C7.97549 21.9017 7.60426 21.8907 6.4369 21.836C5.27064 21.7812 4.4767 21.5972 3.77804 21.3268C3.04688 21.0524 2.38457 20.6215 1.83755 20.0641C1.2806 19.5168 0.84971 18.8546 0.574919 18.1236C0.303338 17.4261 0.120459 16.631 0.0657049 15.4648C0.014236 14.2974 0 13.9262 0 10.9508C0 7.97549 0.0109508 7.60426 0.0657049 6.4369C0.120459 5.26954 0.303338 4.4767 0.574919 3.77804C0.848948 3.04672 1.27994 2.38435 1.83755 1.83755C2.38473 1.28041 3.04699 0.849488 3.77804 0.574919C4.4767 0.303338 5.26954 0.120459 6.4369 0.0657049C7.60426 0.014236 7.97549 0 10.9508 0Z" fill="#0060AA"/>
</svg>
