<svg width="117" height="42" viewBox="0 0 117 42" fill="none" xmlns="http://www.w3.org/2000/svg">
<path d="M25.9778 2.67343H13.3747L5.30904 25.7191H0V32.4004H2.97149L0.00756488 40.867H9.4909L12.1008 32.4004H26.869L29.4788 40.867H39.2814L25.9778 2.67343ZM14.2023 25.7161L15.6654 21.0062C16.7487 17.5687 17.8304 14.0041 18.7851 10.5666H20.3132C21.2044 14.0041 22.2226 17.5687 23.3044 21.0062L24.7689 25.7161H14.2023Z" fill="#0060AA"/>
<path d="M50.547 40.8655H41.8898V0H50.547V40.8655Z" fill="#0060AA"/>
<path d="M55.3205 26.4166C55.3205 15.977 60.9851 9.86612 70.7892 9.86612C80.0819 9.86612 84.474 15.3401 84.474 23.6796C84.474 24.952 84.4105 26.1624 84.2834 27.754H63.8506C64.3605 32.5925 66.5876 34.7561 70.7256 34.7561C74.8636 34.7561 76.0725 32.8467 76.8365 30.5546L84.0928 32.5275C82.7568 37.7473 79.2543 41.6931 70.6621 41.6931C61.56 41.6931 55.322 36.664 55.322 26.4166H55.3205ZM76.5173 23.3604C76.3902 18.6505 74.4173 16.3583 70.5335 16.3583C66.6497 16.3583 64.359 18.3948 63.9127 23.3604H76.5173Z" fill="#0060AA"/>
<path d="M101.723 28.9629H100.642L95.9318 40.8655H86.2563V40.165L94.9136 25.0791L86.3834 11.3927V10.6922H96.3131L101.533 22.3406H102.678L107.452 10.6922H116.617V11.3927L108.406 26.3515L117 40.165V40.8655H107.07L101.723 28.9629Z" fill="#0060AA"/>
</svg>
