<svg width="23" height="22" viewBox="0 0 23 22" fill="none" xmlns="http://www.w3.org/2000/svg">
<path d="M19.4196 3.18675C18.4155 2.17282 17.2196 1.36888 15.9017 0.821768C14.5837 0.274661 13.1701 -0.00466853 11.7431 5.90197e-05C5.76395 5.90197e-05 0.89083 4.87318 0.89083 10.8523C0.89083 12.7687 1.39457 14.6304 2.33634 16.273L0.803223 21.9017L6.55241 20.3905C8.14028 21.2556 9.92527 21.7156 11.7431 21.7156C17.7223 21.7156 22.5954 16.8424 22.5954 10.8633C22.5954 7.96132 21.4674 5.23456 19.4196 3.18675ZM11.7431 19.8758C10.1224 19.8758 8.53451 19.4378 7.14376 18.6165L6.81523 18.4194L3.39857 19.3173L4.30749 15.9883L4.08847 15.6488C3.18782 14.211 2.70968 12.5489 2.70867 10.8523C2.70867 5.88066 6.76048 1.82885 11.7322 1.82885C14.1413 1.82885 16.4082 2.77062 18.1055 4.47895C18.9461 5.31544 19.6123 6.31052 20.0653 7.40647C20.5184 8.50241 20.7493 9.67741 20.7447 10.8633C20.7666 15.835 16.7148 19.8758 11.7431 19.8758ZM16.6929 13.1301C16.4191 12.9987 15.0831 12.3417 14.8422 12.2431C14.5903 12.1555 14.4151 12.1117 14.2289 12.3745C14.0428 12.6483 13.5281 13.2615 13.3748 13.4367C13.2215 13.6229 13.0572 13.6448 12.7834 13.5024C12.5097 13.371 11.6336 13.0754 10.6042 12.1555C9.79386 11.4327 9.25727 10.5457 9.093 10.2719C8.93969 9.99817 9.0711 9.85581 9.21346 9.71345C9.33392 9.59299 9.48724 9.39587 9.61864 9.24256C9.75006 9.08925 9.80481 8.96879 9.89242 8.79358C9.98002 8.60742 9.93622 8.4541 9.87051 8.32269C9.80481 8.19128 9.25727 6.85528 9.03825 6.30774C8.81923 5.7821 8.58927 5.8478 8.425 5.83685H7.89936C7.7132 5.83685 7.42848 5.90256 7.17661 6.17633C6.93569 6.4501 6.23484 7.10715 6.23484 8.44315C6.23484 9.77915 7.20946 11.0714 7.34087 11.2466C7.47228 11.4327 9.25727 14.1704 11.9731 15.3422C12.6192 15.6269 13.1229 15.7912 13.5171 15.9116C14.1632 16.1197 14.7546 16.0868 15.2255 16.0211C15.7511 15.9445 16.8352 15.3641 17.0543 14.7289C17.2842 14.0938 17.2842 13.5572 17.2076 13.4367C17.1309 13.3163 16.9667 13.2615 16.6929 13.1301Z" fill="#0060AA"/>
</svg>
